<svg width="64" height="58" viewBox="0 0 64 58" fill="none" xmlns="http://www.w3.org/2000/svg">
<path opacity="0.2" d="M50.6725 9.65857L50.0089 18.2621C49.9865 18.571 49.8781 18.8673 49.6958 19.1177C49.5135 19.368 49.2648 19.5622 48.9777 19.6784L43.7137 21.8217L37.3864 6.28201L49.2125 7.85265C49.6396 7.91214 50.0281 8.13185 50.2992 8.4672C50.5703 8.80256 50.7038 9.22847 50.6725 9.65857ZM5.37417 28.1027L11.8589 33.7957C12.0906 34.001 12.3753 34.1374 12.6805 34.1892C12.9858 34.241 13.2995 34.2062 13.586 34.0888L18.8501 31.9454L12.5228 16.4057L5.15739 25.7906C4.89332 26.1315 4.76879 26.5601 4.80904 26.9895C4.8493 27.4188 5.05133 27.8168 5.37417 28.1027Z" fill="#333333"/>
<path d="M49.4438 6.19598L37.6177 4.62534L37.5983 4.63325L37.4853 4.63395L37.4465 4.64977L37.3335 4.65046L30.5932 7.39493C30.181 7.56274 29.8524 7.8874 29.6797 8.29749C29.5069 8.70758 29.5041 9.1695 29.6719 9.58164C30.1754 10.8181 30.167 12.2038 29.6487 13.4341C29.1304 14.6643 28.1446 15.6383 26.9082 16.1417C25.6718 16.6452 24.286 16.6368 23.0558 16.1185C21.8255 15.6002 20.8515 14.6144 20.3481 13.378C20.1803 12.9659 19.8556 12.6373 19.4455 12.4645C19.0355 12.2918 18.5735 12.289 18.1614 12.4568L11.421 15.2013L11.3397 15.2797L11.3009 15.2955L11.2196 15.3739L11.2002 15.3818L3.83476 24.7666C3.30155 25.4381 3.04746 26.2891 3.12525 27.143C3.20304 27.9969 3.60674 28.788 4.2525 29.352L10.7451 35.0644C11.2137 35.4732 11.7866 35.7438 12.4 35.8459C13.0134 35.948 13.6431 35.8777 14.2188 35.6428L17.9289 34.1321L24.2563 49.6719C24.5919 50.4961 25.2412 51.1533 26.0614 51.4989C26.8815 51.8444 27.8054 51.85 28.6297 51.5143L50.3853 42.6561C51.2096 42.3205 51.8667 41.6712 52.2123 40.851C52.5578 40.0308 52.5634 39.107 52.2278 38.2827L45.9004 22.743L49.6106 21.2323C50.1866 20.9982 50.6864 20.6087 51.0539 20.1071C51.4215 19.6056 51.6425 19.0118 51.6923 18.392L52.3479 9.76897C52.416 8.91427 52.1523 8.06618 51.6115 7.40083C51.0707 6.73548 50.2944 6.30399 49.4438 6.19598ZM12.9534 32.5348L6.46867 26.8418L12.0604 19.719L16.6635 31.0242L12.9534 32.5348ZM49.1198 39.5482L27.3642 48.4064L14.7096 17.3269L17.9729 15.9982C19.0447 17.6094 20.6406 18.8006 22.4902 19.3698C24.3397 19.939 26.3292 19.8513 28.1215 19.1215C29.9138 18.3917 31.3986 17.0648 32.3245 15.3655C33.2504 13.6662 33.5604 11.6991 33.2018 9.79745L36.4652 8.46871L49.1198 39.5482ZM48.3451 18.1244L44.635 19.635L40.0319 8.32988L49.0087 9.52083L48.3451 18.1244Z" fill="#333333"/>
</svg>
